<svg width="526" height="572" viewBox="0 0 526 572" fill="none" xmlns="http://www.w3.org/2000/svg">
<path d="M503.6 471C511.44 471 515.361 471.001 518.355 472.526C520.99 473.869 523.131 476.01 524.474 478.645C525.999 481.639 526 485.56 526 493.4V549.6C526 557.44 525.999 561.361 524.474 564.355C523.131 566.99 520.99 569.131 518.355 570.474C515.361 571.999 511.44 572 503.6 572H22.4004C14.5598 572 10.6393 571.999 7.64453 570.474C5.01026 569.131 2.86859 566.99 1.52637 564.355C0.000525117 561.361 0 557.44 0 549.6V493.4C0 485.56 0.000525117 481.639 1.52637 478.645C2.86859 476.01 5.01026 473.869 7.64453 472.526C10.6393 471.001 14.5598 471 22.4004 471H503.6ZM503.6 353C511.44 353 515.361 353.001 518.355 354.526C520.99 355.869 523.131 358.01 524.474 360.645C525.999 363.639 526 367.56 526 375.4V432.6C526 440.44 525.999 444.361 524.474 447.355C523.131 449.99 520.99 452.131 518.355 453.474C515.361 454.999 511.44 455 503.6 455H22.4004C14.5598 455 10.6393 454.999 7.64453 453.474C5.01026 452.131 2.86859 449.99 1.52637 447.355C0.000525117 444.361 0 440.44 0 432.6V375.4C0 367.56 0.000525117 363.639 1.52637 360.645C2.86859 358.01 5.01026 355.869 7.64453 354.526C10.6393 353.001 14.5598 353 22.4004 353H503.6ZM503.6 235C511.44 235 515.361 235.001 518.355 236.526C520.99 237.869 523.131 240.01 524.474 242.645C525.999 245.639 526 249.56 526 257.4V314.6C526 322.44 525.999 326.361 524.474 329.355C523.131 331.99 520.99 334.131 518.355 335.474C515.361 336.999 511.44 337 503.6 337H22.4004C14.5598 337 10.6393 336.999 7.64453 335.474C5.01026 334.131 2.86859 331.99 1.52637 329.355C0.000525117 326.361 0 322.44 0 314.6V257.4C0 249.56 0.000525117 245.639 1.52637 242.645C2.86859 240.01 5.01026 237.869 7.64453 236.526C10.6393 235.001 14.5598 235 22.4004 235H503.6ZM503.6 118C511.44 118 515.361 118.001 518.355 119.526C520.99 120.869 523.131 123.01 524.474 125.645C525.999 128.639 526 132.56 526 140.4V196.6C526 204.44 525.999 208.361 524.474 211.355C523.131 213.99 520.99 216.131 518.355 217.474C515.361 218.999 511.44 219 503.6 219H22.4004C14.5598 219 10.6393 218.999 7.64453 217.474C5.01026 216.131 2.86859 213.99 1.52637 211.355C0.000525117 208.361 0 204.44 0 196.6V140.4C0 132.56 0.000525117 128.639 1.52637 125.645C2.86859 123.01 5.01026 120.869 7.64453 119.526C10.6393 118.001 14.5598 118 22.4004 118H503.6ZM503.6 0C511.44 0 515.361 0.000525117 518.355 1.52637C520.99 2.86859 523.131 5.01026 524.474 7.64453C525.999 10.6393 526 14.5598 526 22.4004V79.5996C526 87.4402 525.999 91.3607 524.474 94.3555C523.131 96.9897 520.99 99.1314 518.355 100.474C515.361 101.999 511.44 102 503.6 102H22.4004C14.5598 102 10.6393 101.999 7.64453 100.474C5.01026 99.1314 2.86859 96.9897 1.52637 94.3555C0.000525117 91.3607 0 87.4402 0 79.5996V22.4004C0 14.5598 0.000525117 10.6393 1.52637 7.64453C2.86859 5.01026 5.01026 2.86859 7.64453 1.52637C10.6393 0.000525117 14.5598 0 22.4004 0H503.6Z" fill="url(#paint0_linear_810_507)"/>
<defs>
<linearGradient id="paint0_linear_810_507" x1="263" y1="0" x2="263" y2="572" gradientUnits="userSpaceOnUse">
<stop stop-color="#F3F3F3" stop-opacity="0.4"/>
<stop offset="1" stop-color="#F7F7F7" stop-opacity="0"/>
</linearGradient>
</defs>
</svg>
